<svg version="1.1" viewBox="0 0 752 752" xmlns="http://www.w3.org/2000/svg"><g><path d="m461.38 420.31h-134.3c-4.9961-7.0312-13.32-11.656-22.66-11.656-15.355 0-27.84 12.488-27.84 27.84 0 15.355 12.488 27.84 27.84 27.84 9.3438 0 17.574-4.625 22.66-11.656h134.3c9.6211 0 17.574-7.2148 17.574-16.188 0-8.875-7.8633-16.18-17.574-16.18zm-156.96 32.926c-9.25 0-16.742-7.4922-16.742-16.742s7.4922-16.742 16.742-16.742 16.742 7.4922 16.742 16.742-7.4922 16.742-16.742 16.742zm156.96-11.652h-129.59c0.37109-1.6641 0.46094-3.3281 0.46094-5.0859 0-1.7578-0.18359-3.4219-0.46094-5.0859h129.59c3.5156 0 6.4766 2.3125 6.4766 5.0859 0 2.7734-2.9609 5.0859-6.4766 5.0859z"/><path d="m450.09 348.44c-9.3438 0-17.668 4.625-22.66 11.746h-135.88c-9.7109 0-17.574 7.2148-17.574 16.094s7.8633 16.188 17.574 16.188h135.88c4.9961 7.1211 13.32 11.746 22.66 11.746 15.355 0 27.84-12.488 27.84-27.934 0.003906-15.262-12.484-27.84-27.84-27.84zm-158.54 32.93c-3.5156 0-6.4766-2.3125-6.4766-5.0859s2.9609-4.9961 6.4766-4.9961h131.16c-0.37109 1.6641-0.46094 3.3281-0.46094 4.9961 0 1.7578 0.18359 3.4219 0.46094 5.0859zm158.54 11.746c-9.25 0-16.742-7.5859-16.742-16.836s7.4922-16.742 16.742-16.742 16.742 7.4922 16.742 16.742c0 9.3438-7.4922 16.836-16.742 16.836z"/><path d="m461.38 299.97h-62.25c-4.9961-7.0312-13.32-11.656-22.66-11.656-9.3438 0-17.574 4.625-22.66 11.656h-62.25c-9.7109 0-17.574 7.2148-17.574 16.188 0 8.8789 7.8633 16.188 17.574 16.188h62.246c5.0859 7.0312 13.32 11.656 22.66 11.656 9.3438 0 17.574-4.625 22.66-11.656h62.25c9.6211 0 17.574-7.2148 17.574-16.188 0.003907-8.8789-7.8594-16.188-17.57-16.188zm-169.82 21.273c-3.5156 0-6.4766-2.3125-6.4766-5.0859s2.9609-5.0859 6.4766-5.0859h57.531c-0.37109 1.6641-0.46094 3.3281-0.46094 5.0859s0.18359 3.4219 0.46094 5.0859zm84.914 11.656c-9.25 0-16.742-7.4922-16.742-16.742s7.4922-16.742 16.742-16.742 16.742 7.4922 16.742 16.742-7.4922 16.742-16.742 16.742zm84.91-11.656h-57.531c0.37109-1.6641 0.46094-3.3281 0.46094-5.0859s-0.18359-3.4219-0.46094-5.0859h57.531c3.5156 0 6.4766 2.3125 6.4766 5.0859s-2.9609 5.0859-6.4766 5.0859z"/></g></svg>
