<svg xmlns="http://www.w3.org/2000/svg" version="1.1" viewBox="0 0 752 752"><g><path d="m457.49 306.91v28.859c0 3.0508-2.4961 5.5508-5.5508 5.5508-3.0508 0-5.5508-2.4961-5.5508-5.5508v-19.238l-34.871 34.871c-1.1094 1.1094-2.4961 1.6641-3.9766 1.6641-1.3867 0-2.7734-0.55469-3.8867-1.6641-2.1289-2.1289-2.1289-5.6406 0-7.8633l34.871-34.871h-19.238c-3.0508 0-5.5508-2.4961-5.5508-5.5508 0-3.0508 2.4961-5.5508 5.5508-5.5508l28.859 0.003906c5.1797 0 9.3438 4.2539 9.3438 9.3398z"/><path d="m351.12 351.4c-1.1094 1.1094-2.4961 1.6641-3.8867 1.6641-1.4805 0-2.8672-0.55469-3.8867-1.6641l-34.867-34.781v19.238c0 3.0508-2.4961 5.5508-5.5508 5.5508-3.0508 0-5.5508-2.4961-5.5508-5.5508v-28.859c0-5.1797 4.1641-9.3438 9.3438-9.3438h28.859c3.0508 0 5.5508 2.4961 5.5508 5.5508 0 3.0508-2.4961 5.5508-5.5508 5.5508h-19.238l34.871 34.871c2.125 2.1289 2.125 5.6445-0.09375 7.7734z"/><path d="m351.12 411.8-34.871 34.871h19.238c3.0508 0 5.5508 2.4961 5.5508 5.5508 0 3.0508-2.4961 5.5508-5.5508 5.5508h-28.859c-5.1797 0-9.3438-4.1641-9.3438-9.3438v-28.859c0-3.0508 2.4961-5.5508 5.5508-5.5508 3.0508 0 5.5508 2.4961 5.5508 5.5508v19.238l34.871-34.871c2.1289-2.2188 5.6406-2.2188 7.8633 0 2.2188 2.2227 2.2188 5.7383 0 7.8633z"/><path d="m457.49 419.57v28.859c0 5.1797-4.1641 9.3438-9.3438 9.3438h-28.859c-3.0508 0-5.5508-2.4961-5.5508-5.5508 0-3.0508 2.4961-5.5508 5.5508-5.5508h19.238l-34.871-34.871c-2.1289-2.2188-2.1289-5.6406 0-7.8633 2.2188-2.2188 5.7344-2.2188 7.8633 0l34.871 34.871v-19.332c0-3.0508 2.4961-5.5508 5.5508-5.5508 3.0508 0.09375 5.5508 2.5938 5.5508 5.6445z"/></g></svg>
