<svg xmlns="http://www.w3.org/2000/svg" version="1.1" viewBox="0 0 752 752"><g><path d="m386.82 333.73v-49.301c0-6.9375-3.793-13.133-9.9883-16-6.0117-2.8672-13.043-2.0352-18.312 2.3125l-57.164 54.297h-19.332c-11.379 0-20.535 9.25-20.535 20.625v58.922c0 11.379 9.25 20.535 20.535 20.535h19.332l56.887 54.02 0.37109 0.27734c3.2383 2.5898 7.1211 3.9766 11.008 3.9766 2.4961 0 4.9961-0.55469 7.3984-1.6641 6.1055-2.9609 9.9883-9.0664 9.9883-16v-49.301c20.348-2.6836 36.168-20.258 36.168-41.348-0.19141-21.094-16.008-38.668-36.355-41.352zm-114.32 70.852v-58.922c0-5.2734 4.2539-9.5273 9.4336-9.5273h16v77.883h-16c-5.1797 0-9.4336-4.2539-9.4336-9.4336zm103.22 61.141c0 2.6836-1.3867 4.9023-3.6055 6.0117-1.0156 0.46094-3.6992 1.3867-6.4766-0.73828l-56.516-53.742v-84.172l56.516-53.742c2.7734-2.1289 5.3633-1.2969 6.4766-0.73828 2.2188 1.1094 3.6055 3.3281 3.6055 6.0117zm11.102-60.492v-60.215c14.246 2.5898 25.066 15.168 25.066 30.152s-10.824 27.473-25.066 30.062z"/><path d="m403.1 444.91c-2.4062 0-4.625-1.5742-5.3633-3.9766-0.83203-2.9609 0.83203-6.0117 3.793-6.8438 26.082-7.5859 44.305-31.82 44.305-58.922 0-27.195-18.223-51.43-44.305-58.922-2.9609-0.83203-4.625-3.9766-3.793-6.8438 0.83203-2.9609 3.8867-4.625 6.8438-3.793 30.801 8.9727 52.352 37.555 52.352 69.648 0 32.098-21.551 60.676-52.352 69.648-0.46094 0.003906-0.92578 0.003906-1.4805 0.003906z"/><path d="m404.03 480.34c-2.4062 0-4.7188-1.6641-5.3633-4.0703-0.83203-2.9609 0.92578-6.0117 3.8867-6.8438 45.137-12.117 76.586-50.871 76.586-94.348 0-43.379-31.543-82.23-76.586-94.348-2.9609-0.83203-4.7188-3.8867-3.8867-6.8438 0.83203-2.9609 3.793-4.7188 6.8438-3.8867 49.949 13.41 84.82 56.609 84.82 105.07 0 48.375-34.871 91.57-84.82 105.07-0.55469 0.10156-1.0156 0.19141-1.4805 0.19141z"/></g></svg>
