<svg xmlns="http://www.w3.org/2000/svg" version="1.1" viewBox="0 0 752 752"><path d="m486.35 477.56-60.492-60.492c16.926-5.2734 29.23-21.184 29.23-39.773 0-21.09-15.723-38.664-36.168-41.348v-49.301c0-6.9375-3.793-13.133-9.9883-16-6.0117-2.8672-13.043-2.0352-18.312 2.3125l-55.867 53.094-55.496-55.406c-2.2188-2.2188-5.7344-2.2188-7.8633 0-2.2188 2.1289-2.2188 5.6406 0 7.8633l48.84 48.84h-6.1055c-11.379 0-20.625 9.25-20.625 20.535v58.922c0 11.379 9.25 20.535 20.625 20.535l19.328-0.007812 56.887 54.02 0.37109 0.27734c3.2383 2.5898 7.1211 3.8867 11.008 3.8867 2.4961 0 4.9961-0.55469 7.3984-1.6641 6.1055-2.9609 9.9883-9.0664 9.9883-16v-41.992l59.477 59.477c1.1094 1.1094 2.4961 1.6641 3.9766 1.6641 1.3867 0 2.7734-0.55469 3.8867-1.6641 2.0312-2.1367 2.0312-5.6484-0.097656-7.7773zm-156.22-61.418h-16c-5.2734 0-9.5273-4.2539-9.5273-9.4336v-58.922c0-5.1797 4.2539-9.4336 9.5273-9.4336h16zm77.789 51.707c0 2.6836-1.3867 4.9023-3.6055 6.0117-1.0156 0.55469-3.6992 1.3867-6.4766-0.73828l-56.609-53.742v-71.223l66.598 66.598v53.094zm0-68.82-65.301-65.301 55.219-52.445c2.7734-2.1289 5.3633-1.2969 6.4766-0.73828 2.2188 1.1094 3.6055 3.3281 3.6055 6.0117zm11.098-51.891c14.246 2.5898 25.066 15.078 25.066 30.152 0 14.984-10.82 27.473-25.066 30.062z"/></svg>
