<svg xmlns="http://www.w3.org/2000/svg" width="752pt" height="752pt" version="1.1" viewBox="0 0 752 752"><g><path d="m347.7 294.33c2.1289 0 4.2539 0.55469 6.1953 1.5742l128.85 70.48c4.0703 2.2188 6.4766 6.1953 6.4766 10.73 0 4.5312-2.4062 8.5078-6.4766 10.73l-128.85 70.48c-3.9766 2.2188-8.8789 2.1289-12.855-0.18359-3.793-2.2188-6.1055-6.1953-6.1055-10.453v-141.06c0-4.3477 2.2188-8.2305 6.1055-10.453 2.125-1.1992 4.3477-1.8477 6.6602-1.8477zm0 154.56c0.27734 0 0.55469-0.09375 0.92578-0.27734l128.85-70.48c0.46094-0.27734 0.64844-0.55469 0.64844-0.92578s-0.18359-0.73828-0.64844-1.0156l-128.85-70.484c-0.83203-0.46094-1.6641-0.09375-1.8516 0-0.37109 0.27734-0.64844 0.55469-0.64844 0.92578v141.06c0 0.37109 0.18359 0.73828 0.64844 0.92578 0.09375 0.089844 0.46484 0.27344 0.92969 0.27344z"/><path d="m288.59 294.61h17.668c7.0312 0 12.855 5.7344 12.855 12.855v139.39c0 7.0312-5.7344 12.855-12.855 12.855h-17.668c-7.0312 0-12.855-5.7344-12.855-12.855l-0.003906-139.39c0-7.0273 5.8281-12.855 12.859-12.855zm17.664 154c0.92578 0 1.7578-0.73828 1.7578-1.7578v-139.39c0-0.92578-0.73828-1.7578-1.7578-1.7578h-17.668c-0.92578 0-1.7578 0.73828-1.7578 1.7578v139.39c0 0.92578 0.73828 1.7578 1.7578 1.7578z"/></g></svg>
