<svg xmlns="http://www.w3.org/2000/svg" version="1.1" viewBox="0 0 752 752"><path d="m312.64 458.88c-2.3125 0-4.625-0.64844-6.5664-1.7578-3.793-2.2188-6.1055-6.1953-6.1055-10.453v-141.15c0-4.3477 2.2188-8.2305 6.1055-10.453 3.8867-2.3125 8.7891-2.4062 12.855-0.18359l128.85 70.48c4.0703 2.2188 6.4766 6.1953 6.4766 10.73 0 4.5312-2.4062 8.5078-6.4766 10.73l-128.85 70.48c-2.0352 1.0195-4.1602 1.5742-6.2891 1.5742zm0-154.56c-0.46094 0-0.83203 0.18359-0.92578 0.27734-0.37109 0.27734-0.64844 0.55469-0.64844 0.92578v141.06c0 0.37109 0.18359 0.73828 0.64844 0.92578 0.18359 0.09375 1.0156 0.46094 1.8516 0l128.85-70.48c0.46094-0.27734 0.64844-0.55469 0.64844-1.0156 0-0.37109-0.18359-0.73828-0.64844-0.92578l-128.85-70.48c-0.37109-0.19141-0.64844-0.28516-0.92578-0.28516z"/></svg>
