<svg xmlns="http://www.w3.org/2000/svg" version="1.1" viewBox="0 0 752 752"><g><path d="m417.25 459.99c-2.1289 0-4.2539-0.55469-6.1953-1.5742l-128.85-70.48c-4.0703-2.2188-6.4766-6.1953-6.4766-10.73 0-4.5312 2.4062-8.5078 6.4766-10.73l128.85-70.48c3.9766-2.2188 8.8789-2.1289 12.855 0.18359 3.793 2.2188 6.1055 6.1953 6.1055 10.453v141.06c0 4.3477-2.2188 8.2305-6.1055 10.453-2.0352 1.1992-4.3477 1.8477-6.6602 1.8477zm0-154.56c-0.27734 0-0.55469 0.09375-0.92578 0.27734l-128.85 70.48c-0.46094 0.27734-0.64844 0.55469-0.64844 0.92578s0.18359 0.73828 0.64844 1.0156l128.85 70.48c0.83203 0.46094 1.6641 0.09375 1.8516 0 0.37109-0.27734 0.64844-0.55469 0.64844-0.92578v-141.05c0-0.37109-0.18359-0.73828-0.64844-0.92578-0.09375-0.089844-0.46094-0.27734-0.92578-0.27734z"/><path d="m476.36 459.71h-17.668c-7.0312 0-12.855-5.7344-12.855-12.855v-139.39c0-7.0312 5.7344-12.855 12.855-12.855h17.668c7.0312 0 12.855 5.7344 12.855 12.855v139.39c0.003906 7.125-5.7344 12.859-12.855 12.859zm-17.574-154.01c-0.92578 0-1.7578 0.73828-1.7578 1.7578v139.39c0 0.92578 0.73828 1.7578 1.7578 1.7578h17.668c0.92578 0 1.7578-0.73828 1.7578-1.7578v-139.39c0-0.92578-0.73828-1.7578-1.7578-1.7578z"/></g></svg>
