<svg width="100%" height="100%" viewBox="0 0 752 752" version="1.1" xmlns="http://www.w3.org/2000/svg" xmlns:xlink="http://www.w3.org/1999/xlink" style="fill-rule:evenodd;clip-rule:evenodd;stroke-linejoin:round;stroke-miterlimit:2;"><g><path d="M294.7,293.2c2.129,-0 4.254,0.555 6.195,1.574l128.85,70.48c4.071,2.219 6.477,6.195 6.477,10.73c-0,4.531 -2.406,8.508 -6.477,10.73l-128.85,70.48c-3.976,2.219 -8.879,2.129 -12.855,-0.183c-3.793,-2.219 -6.105,-6.196 -6.105,-10.453l-0,-141.06c-0,-4.348 2.219,-8.231 6.105,-10.453c2.125,-1.2 4.348,-1.848 6.66,-1.848l0,0.003Zm0,154.56c0.277,-0 0.555,-0.094 0.926,-0.277l128.85,-70.48c0.461,-0.278 0.648,-0.555 0.648,-0.926c0,-0.371 -0.183,-0.738 -0.648,-1.016l-128.85,-70.484c-0.832,-0.461 -1.664,-0.094 -1.852,0c-0.371,0.278 -0.648,0.555 -0.648,0.926l-0,141.06c-0,0.371 0.183,0.738 0.648,0.926c0.094,0.09 0.465,0.273 0.93,0.273l-0.004,-0.002Z" style="fill-rule:nonzero;"/><path d="M454.081,299.498c-0,-3.478 -2.823,-6.301 -6.301,-6.301l-0.257,-0c-3.478,-0 -6.301,2.823 -6.301,6.301l-0,153.004c-0,3.478 2.823,6.301 6.301,6.301l0.257,0c3.478,0 6.301,-2.823 6.301,-6.301l-0,-153.004Z"/></g></svg>