<svg xmlns="http://www.w3.org/2000/svg" version="1.1" viewBox="0 0 752 752"><g><path d="m457.95 299.79-35.426 35.426h19.703c3.0508 0 5.5508 2.4961 5.5508 5.5508 0 3.0508-2.4961 5.5508-5.5508 5.5508h-29.23c-5.1797 0-9.3438-4.2539-9.3438-9.3438v-29.23c0-3.0508 2.4961-5.5508 5.5508-5.5508 3.0508 0 5.5508 2.4961 5.5508 5.5508v19.703l35.426-35.426c2.1289-2.2188 5.6406-2.2188 7.8633 0 2.125 2.0352 2.125 5.5508-0.09375 7.7695z"/><path d="m353.43 405.79v29.23c0 3.0508-2.4961 5.5508-5.5508 5.5508-3.0508 0-5.5508-2.4961-5.5508-5.5508v-19.703l-35.426 35.426c-1.1094 1.1094-2.4961 1.6641-3.8867 1.6641-1.4805 0-2.8672-0.55469-3.8867-1.6641-2.2188-2.1289-2.2188-5.6406 0-7.8633l35.426-35.426h-19.703c-3.0508 0-5.5508-2.4961-5.5508-5.5508 0-3.0508 2.4961-5.5508 5.5508-5.5508h29.23c5.1836 0.003906 9.3477 4.2578 9.3477 9.4375z"/><path d="m457.95 450.74c-1.1094 1.1094-2.4961 1.6641-3.8867 1.6641-1.4805 0-2.8672-0.55469-3.8867-1.6641l-35.426-35.426v19.703c0 3.0508-2.4961 5.5508-5.5508 5.5508-3.0508 0-5.5508-2.4961-5.5508-5.5508v-29.23c0-5.1797 4.2539-9.3438 9.3438-9.3438h29.23c3.0508 0 5.5508 2.4961 5.5508 5.5508 0 3.0508-2.4961 5.5508-5.5508 5.5508h-19.703l35.426 35.426c2.2227 2.1289 2.2227 5.6406 0.003906 7.7695z"/><path d="m353.43 307.65v29.23c0 5.1797-4.2539 9.3438-9.3438 9.3438h-29.23c-3.0508 0-5.5508-2.4961-5.5508-5.5508 0-3.0508 2.4961-5.5508 5.5508-5.5508h19.703l-35.426-35.426c-2.2188-2.1289-2.2188-5.6406 0-7.8633 2.1289-2.2188 5.6406-2.2188 7.8633 0l35.426 35.426v-19.703c0-3.0508 2.4961-5.5508 5.5508-5.5508 3.0508 0 5.457 2.5898 5.457 5.6445z"/></g></svg>
