<?xml version="1.0" encoding="UTF-8" standalone="no"?><!DOCTYPE svg PUBLIC "-//W3C//DTD SVG 1.1//EN" "http://www.w3.org/Graphics/SVG/1.1/DTD/svg11.dtd"><svg width="100%" height="100%" viewBox="0 0 600 600" version="1.1" xmlns="http://www.w3.org/2000/svg" xmlns:xlink="http://www.w3.org/1999/xlink" xml:space="preserve" xmlns:serif="http://www.serif.com/" style="fill-rule:evenodd;clip-rule:evenodd;stroke-linecap:round;stroke-miterlimit:10;"><g><path d="M322.018,473.017c0,0 9.092,53.606 -7.482,90.314" style="fill-opacity:0;fill-rule:nonzero;stroke:#000;stroke-width:13.33px;"/><path d="M519.589,255.682c-5.514,63.023 -61.805,112.295 -231.928,97.247c-167.302,-14.801 -215.579,-72.893 -210.065,-135.916c5.514,-63.026 106.35,-76.009 228.403,-65.331c122.053,10.678 219.104,40.974 213.59,104Z" style="fill:#725444;fill-rule:nonzero;"/><path d="M519.589,255.682c-5.514,63.023 -61.805,112.295 -231.928,97.247c-167.302,-14.801 -215.579,-72.893 -210.065,-135.916c5.514,-63.026 106.35,-76.009 228.403,-65.331c122.053,10.678 219.104,40.974 213.59,104Z" style="fill-opacity:0;fill-rule:nonzero;stroke:#000;stroke-width:13.33px;stroke-linejoin:round;stroke-miterlimit:4;"/><path d="M382.436,234.209l-166.274,-14.547c0,0 -92.027,197.152 -52.364,250.331c34.019,45.614 185.312,58.85 226.735,19.837c48.297,-45.483 -8.097,-255.621 -8.097,-255.621Z" style="fill:#d4c4a5;fill-rule:nonzero;"/><path d="M382.436,234.209l-166.274,-14.547c0,0 -92.027,197.152 -52.364,250.331c34.019,45.614 185.312,58.85 226.735,19.837c48.297,-45.483 -8.097,-255.621 -8.097,-255.621Z" style="fill-opacity:0;fill-rule:nonzero;stroke:#000;stroke-width:13.33px;stroke-linejoin:round;stroke-miterlimit:4;"/><path d="M326.529,392.446c-0.594,6.789 -6.578,11.81 -13.367,11.216c-6.786,-0.594 -11.81,-6.577 -11.216,-13.366c0.594,-6.789 6.58,-11.81 13.367,-11.216c6.789,0.594 11.81,6.577 11.216,13.366Z" style="fill-rule:nonzero;"/><path d="M385.679,397.621c-0.594,6.789 -6.577,11.81 -13.366,11.216c-6.787,-0.594 -11.81,-6.577 -11.216,-13.366c0.594,-6.789 6.58,-11.81 13.366,-11.216c6.789,0.594 11.81,6.577 11.216,13.366Z" style="fill-rule:nonzero;"/><path d="M362.242,423.677c-1.72,19.652 -42.552,13.657 -41.043,-3.591" style="fill-opacity:0;fill-rule:nonzero;stroke:#000;stroke-width:13.33px;"/><path d="M522.917,238.883c8.308,-94.96 -76.179,-182.214 -206.766,-195.666c-126.986,-12.981 -230.84,61.694 -239.147,156.653c-8.309,94.962 91.747,101.004 214.881,111.776c123.137,10.774 222.724,22.199 231.032,-72.763Z" style="fill:#9b8579;fill-rule:nonzero;"/><path d="M522.917,238.883c8.308,-94.96 -76.179,-182.214 -206.766,-195.666c-126.986,-12.981 -230.84,61.694 -239.147,156.653c-8.309,94.962 91.747,101.004 214.881,111.776c123.137,10.774 222.724,22.199 231.032,-72.763Z" style="fill-opacity:0;fill-rule:nonzero;stroke:#000;stroke-width:13.33px;stroke-linejoin:round;stroke-miterlimit:4;"/><path d="M137.771,182.34c-0,0 -30.995,53.039 7.79,108.523" style="fill-opacity:0;fill-rule:nonzero;stroke:#000;stroke-width:13.33px;stroke-linejoin:round;stroke-miterlimit:4;"/><path d="M462.732,210.771c0,-0 21.314,57.614 -26.517,105.521" style="fill-opacity:0;fill-rule:nonzero;stroke:#000;stroke-width:13.33px;stroke-linejoin:round;stroke-miterlimit:4;"/><path d="M204.348,302.871c-0,0 -26.187,-21.85 -19.771,-62.515" style="fill-opacity:0;fill-rule:nonzero;stroke:#000;stroke-width:13.33px;stroke-linejoin:round;stroke-miterlimit:4;"/><path d="M336.079,315.518c-0,-0 16.016,-4.156 18.171,-39.666" style="fill-opacity:0;fill-rule:nonzero;stroke:#000;stroke-width:13.33px;stroke-linejoin:round;stroke-miterlimit:4;"/><path d="M261.508,470.097c0,0 -2.036,66.537 -13.579,93.234" style="fill-opacity:0;fill-rule:nonzero;stroke:#000;stroke-width:13.33px;"/><path d="M351.109,128.02c26.62,-2.275 52.176,14.173 65.403,34.051" style="fill-opacity:0;fill-rule:nonzero;stroke:#000;stroke-width:13.33px;"/><path d="M416.512,112.51c23.199,7.743 35.656,19.234 43.231,32.43" style="fill-opacity:0;fill-rule:nonzero;stroke:#000;stroke-width:13.33px;"/></g></svg>